<svg xmlns="http://www.w3.org/2000/svg" width="1056" height="816" version="1.0" viewBox="0 0 792 612"><path fill="#fff" d="M108.6 91.6c-10.3 2.5-18.4 7.2-26.7 15.4-11.9 11.8-17.3 24.3-17.3 40.5 0 15.9 5.3 28.4 16.9 40 11.7 11.7 24.1 16.9 40.5 16.9 15.7 0 28.8-5.2 39.8-15.7 9.4-9.1 14.2-20.8 14.2-34.9V149h-47v7h20c11 0 20 .4 20 .8 0 3.5-2.6 13.5-4.5 17.2-6.3 12.5-22.3 22.3-38.7 23.7-28.4 2.5-54.1-21.3-54.1-50.2 0-27.7 22.9-50.5 50.8-50.5 15 0 28.1 6 38.3 17.7l4.9 5.6 2.6-1.9c1.5-1 2.7-2.3 2.7-2.8 0-.4-3.3-4.1-7.4-8.2-8.2-8.2-19.6-14.5-29.5-16.4-7.4-1.4-18.4-1.1-25.5.6m549.8-.6c-21.4 4.3-40.4 23.1-44.9 44.7-1.8 8.6-1.8 14 0 22.8 4.3 20.2 19 36.5 39.5 43.6 8.5 2.9 23.7 3.1 32.4.5 20.4-6.1 36-22.1 41.1-42.1 7.6-29.8-11.9-61.1-43-69-6.3-1.6-18.3-1.8-25.1-.5m26.9 8c17.2 5.3 31.3 21.1 34.8 38.8 6.7 34.8-25.4 66.4-60.3 59.1-19.2-4-35.3-20.4-39.5-40.3-4.9-23.6 9.8-48.8 33.5-57.2 8.9-3.1 22.1-3.3 31.5-.4M240 147.4V203h7v-25.5c0-23.9.1-25.5 1.8-25.5 1.2 0 7.4 8.1 19.2 25.5l17.5 25.5h8.6l-3.3-4.8c-1.7-2.6-9.2-13.4-16.6-24-7.3-10.7-13.6-20-13.9-20.8-.4-1.1.5-1.4 3.6-1.4 11.5 0 23.5-8.8 26.6-19.4 3.4-11.8.4-25.6-7.2-32.8-6.1-5.8-11.4-7.2-28-7.6l-15.3-.4zm32.8-45.8c12.8 6.4 16 24.2 6.5 35.4-5.5 6.4-9.8 8-22 8H247V99h10.3c9.1 0 10.9.3 15.5 2.6m83.2 29.2c0 23.7.4 41.1 1.1 44.7 2.9 15.9 13.8 25.6 31.8 28.6 17.3 2.9 35.6-6.1 42.3-20.6 2.3-4.9 2.3-5.6 2.6-48.3l.3-43.2h-7l-.4 41.7c-.2 32.7-.6 42.7-1.7 45.8-.8 2.2-3.7 6.3-6.5 9.1-6.5 6.5-12.9 8.9-24 8.9-7.1 0-8.9-.4-14.8-3.3-3.8-1.9-7.9-4.9-9.7-7-6-7.2-6.3-9.6-6.8-54.5l-.4-40.7H356zm145 16.7V203h7v-50.8l13.3-.4c15.8-.5 21.5-2.5 27.7-9.5 4.8-5.5 7-11.8 7-20.3 0-9.4-2.3-15.3-8.4-21.6-7-7.2-11.5-8.4-31.3-8.4H501zm38.2-45c2.8 2 5.2 4.9 7.1 8.4 6.1 12.2 1.5 26-10.7 31.7-4.4 2.1-6.6 2.4-16.3 2.4H508V98.8l13.4.4c13 .3 13.6.4 17.8 3.3M414 225.6c-29.1 3.2-49.5 12.2-67.9 29.8-12.5 12.1-20.6 25.3-25.8 42.3-2.5 8.2-2.7 10.1-2.7 26.3.1 15.7.3 18.5 2.7 27.5 2.8 10.5 9.4 25.4 14.8 33.1 4.6 6.7 14.3 16.8 21.3 22 8.6 6.6 24.3 14 36.1 17 13.7 3.5 34 4.4 48.4 2 23.7-4 42.4-13.7 57.7-29.9 17.9-19 27.4-43.9 27.4-71.6 0-18.5-3.7-32.9-12.1-47.7-4.8-8.5-17-22.1-26-29-11.9-9.1-29.5-16.9-44.5-19.7-8.6-1.7-23.8-2.7-29.4-2.1m22 51c16.1 4.6 29.6 16.9 35.3 32.1 2.9 8.1 2.9 22.1-.1 31.8-8.3 27.1-35.9 42.9-62.5 36-16.2-4.2-30.3-17.4-35.8-33.3-5-14.5-4.5-27.5 1.6-39.8 11-22.3 37.1-33.7 61.5-26.8M96.5 231.2c-.4 1.4-32.5 191-32.5 192.2 0 .3 11.5.6 25.5.6H115l.5-2.3c.2-1.2 3.8-25.8 8-54.7 4.1-28.9 7.8-53.6 8.1-55 .5-1.9 6 11.1 23.3 54.5l22.7 57 10.5.3 10.4.3 22.4-53.8c22.1-52.9 26-61.9 26.1-59.7 0 .6 3.2 25.9 7 56.3 3.9 30.3 7 55.6 7 56.1 0 .6 9.6 1 26.1 1h26.1l-.5-2.3c-.3-1.2-7-44.8-14.8-97L283.6 230h-54.1l-19.9 49.8c-10.9 27.3-20.2 50-20.5 50.4s-9.2-21.9-19.7-49.5l-19.1-50.2-26.7-.3c-20.8-.2-26.7 0-27.1 1M542 327v97h52l.2-43 .3-43.1 33 42.7c18.1 23.4 33.4 42.8 34 43 .5.2 15.7.3 33.6.2l32.6-.3-42.8-52c-36.6-44.5-42.6-52.2-41.5-53.5.7-.8 17-20.2 36.1-43s35.4-42.3 36.3-43.3c1.4-1.6-.1-1.7-30.4-1.7h-31.9L624 268.7l-29.5 38.7-.3-38.7-.2-38.7h-52zM254.6 459.8c-.3.5-1.7 10.1-3 21.3-1.4 11.2-2.8 21.6-3.1 23.1-.4 2.6-.2 2.8 3 2.8 1.9 0 3.5-.3 3.5-.8.1-.4 1.4-10.8 2.9-23.2 1.6-12.4 2.6-22.8 2.4-23.3-.6-1-5.1-.9-5.7.1m325.9.4c-.3.7-1.7 11.5-3.3 24l-2.8 22.8h3.3c1.8 0 3.3-.1 3.3-.3 1.3-8 5.7-46.4 5.3-47-.7-1.2-5.3-.8-5.8.5m-480 16.8c-5.4 9.4-10.1 17.2-10.4 17.4-.4.3-2.9-6.8-5.5-15.7-2.7-8.9-5.2-16.5-5.6-16.9-.5-.6-15 42.5-15 44.6 0 .3 1.5.6 3.3.6h3.3l4-12.9c2.1-7.2 4.2-12.7 4.5-12.3.4.4 2.4 6.3 4.4 13.2 2.1 6.9 4.1 13.1 4.4 13.7.4.7 4.1-5.1 8.6-13.3l8-14.5.7 4.8c.3 2.6.7 7.1.7 9.9.1 2.8.4 6.6.7 8.3.6 2.7 1 3.1 4 3.1 3.3 0 3.4-.2 3.4-3.8 0-5.2-3-42.5-3.4-43-.2-.2-4.8 7.4-10.1 16.8m493-11.4c-1.8 1.8-1.6 3.3.7 4.7 3.5 2.2 6.6-2.1 3.6-5.1-1.6-1.6-2.3-1.5-4.3.4m-457 3.9c-3.5 4.2-3.9 6.6-1.2 6.5.7-.1 3.1-1.8 5.4-3.9l4.3-3.9-2.4-1.6c-2.4-1.5-2.6-1.5-6.1 2.9m335.1 1.6c-.3 1.7-.6 4.4-.6 6 0 2.2-.5 2.9-2 2.9-1.1 0-2 .6-2 1.4s-.3 2.2-.6 3.1c-.5 1.1 0 1.8 1.5 2.2 1.4.3 2 1.1 1.7 2.2-.3.9-.7 4.5-1.1 8.1s-.9 7.3-1.1 8.2c-.4 1.5.1 1.8 2.9 1.8 3.8 0 3.8.2 5.3-13.8.6-5.9.8-6.2 3.4-6.2 2.1 0 2.9-.6 3.4-2.5.9-3.3.1-4.5-3-4.5-1.9 0-2.4-.4-2-1.8.3-.9.6-3.5.8-5.7.3-3.8.2-4-2.8-4.3-2.8-.3-3.2 0-3.8 2.9m195-.9c-.3 1.3-.6 3.8-.6 5.6 0 2.5-.5 3.5-1.9 3.9-2.7.7-3.7 5.4-1.5 7 1.4 1 1.6 2.2 1 7.5-.4 3.5-.9 7.8-1.3 9.5-.5 3.2-.4 3.3 3 3.3h3.5l1.2-10c1.2-10 1.2-10 4-10 2.3 0 2.8-.5 3.2-3 .5-3.6.2-4-2.9-4-2.2 0-2.2-.2-1.6-6l.6-6h-3c-2.3 0-3.2.5-3.7 2.2m-540.3 11.9c-5 2.4-7.3 6.7-7.3 13.4 0 4 .5 5.2 3.5 8.2 3.2 3.2 3.9 3.5 8.2 3.1 2.7-.3 5.7-.8 6.7-1.3 1.4-.6 1.7-.5 1.2.3s.4 1.2 2.8 1.2c2 0 3.6-.3 3.6-.8 0-.4.7-5.4 1.5-11.2 2.1-15 2-15-1.4-15-1.6 0-3.1.6-3.4 1.5-.5 1.2-1 1.2-3.4 0-3.8-2-7.1-1.9-12 .6m11.9 5.6c1.1 1 1.8 3 1.8 5.5 0 7.8-8.5 11.8-12.9 6.2-2.6-3.3-2.6-6-.1-10.2 1.6-2.7 2.6-3.2 5.7-3.2 2 0 4.5.7 5.5 1.7m21.1-7c-2.8.5-6.3 4.9-6.3 7.7s1.6 4.8 6.3 7.6c2.4 1.4 3.7 2.8 3.5 3.9-.4 2.2-4.5 2.6-6.6.7-1.5-1.3-2-1.3-4.1.4l-2.5 1.8 3.5 2.1c5.7 3.5 13.9 2.4 16-2.3 1.8-4 .3-7.4-4.6-10.4-2.7-1.6-4.4-3.4-4.5-4.6 0-1.6.5-1.8 4.4-1.3 3.3.5 4.7.2 5.7-.9 1-1.2.8-1.7-.7-2.9-1-.8-2.3-1.5-2.9-1.5-.5 0-1.9-.2-3-.4s-3-.2-4.2.1m29.7 0c-.1 1.4 8.5 29.3 9 29.3.6 0 18-28.4 18-29.4 0-.3-1.6-.6-3.5-.6-3.3 0-3.7.4-7.6 7.5-2.2 4.1-4.4 7.7-4.9 8-.4.3-1.1-.7-1.4-2.3-2.8-11.7-3.5-13.2-6.6-13.2-1.7 0-3 .3-3 .7m35.3.4c-7.1 2.1-11.2 12.1-7.8 19.3 2.8 5.8 9.4 8.1 15.9 5.6 1.7-.6 2.6-.6 2.6 0s1.5 1 3.3 1h3.4l1.5-12.7c.9-7.1 1.4-13.1 1.1-13.5-.8-1.4-5.3-.8-5.9.7-.5 1.3-.9 1.3-3.4 0-3.2-1.7-6-1.8-10.7-.4m11.1 7.1c2.3 3.3 1.9 7.2-1 10.7-6.9 8.2-17-1.8-10.3-10.3 2.7-3.5 9-3.7 11.3-.4m36-7.2c-1.8.6-4.6 2.6-6.3 4.5-5.7 6.5-3.8 16 3.9 20 3.8 2 10.4 1.9 14.7-.2 9.1-4.3 9.8-17.6 1.3-22.6-3.5-2.1-9.7-2.9-13.6-1.7m10.8 6.7c2.6 2.3 2.4 9-.4 12-2.7 2.9-7.7 3-10.9.4-3-2.4-3.3-8.9-.5-12 2.4-2.6 9.1-2.9 11.8-.4m15.4-4.5c-1.1 6.5-2.6 19-2.6 21.4 0 2 .5 2.4 3 2.4 3.3 0 3.4-.3 4.5-10.4 1.1-9.3 1.9-10.8 5.9-10.5 5.6.5 9.2-4.2 4.2-5.5-1.4-.3-3.7-.1-5.3.5-1.9.7-2.9.7-3.1 0-.2-.6-1.7-1.1-3.2-1.1-2.5 0-3 .5-3.4 3.2m37-2.4c-.2.4-1.4 8.8-2.5 18.7-1.2 9.9-2.4 19-2.6 20.2-.5 2-.1 2.3 2.9 2.3 3.7 0 3.3 1.1 5.1-13.7l.7-5.3 2.5 2c5.3 4.2 15.4 1.5 18.8-4.9 5.4-10.5-3.2-22.2-14.2-19.2-2.4.7-4.1.7-4.7.1-1.2-1.2-5.3-1.3-6-.2m17 6c6.1 4 2.2 15.2-5.2 15.2-3.6 0-7.4-3.7-7.4-7.2 0-2.5 2.6-7.5 4.2-8.1 2-.8 7.2-.8 8.4.1m20.7-4.7c-5 2.4-7.3 6.7-7.3 13.4 0 4 .5 5.2 3.5 8.2 3.2 3.2 3.9 3.5 8.2 3.1 2.7-.3 5.7-.8 6.7-1.3 1.4-.6 1.7-.5 1.2.3s.4 1.2 2.8 1.2c2 0 3.6-.3 3.6-.8 0-.4.7-5.4 1.5-11.2 2.1-15 2-15-1.4-15-1.6 0-3.1.6-3.4 1.5-.5 1.2-1 1.2-3.4 0-3.8-2-7.1-1.9-12 .6m11.9 5.6c1.1 1 1.8 3 1.8 5.5 0 7.8-8.5 11.8-12.9 6.2-2.6-3.3-2.6-6-.1-10.2 1.6-2.7 2.6-3.2 5.7-3.2 2 0 4.5.7 5.5 1.7m16.8-7c0 .5-.7 5.5-1.5 11.3-2.1 15.4-2.1 15.2 1.7 14.8l3.3-.3 1.1-8.5c1.4-11.4 1.9-12.3 6.1-11.8 2.5.3 3.9-.2 5.5-1.9l2.1-2.2-2.8-1.1c-2-.8-3.7-.8-5.9 0-2.1.7-3.2.7-3.4 0-.4-1.1-6.2-1.4-6.2-.3m24.5 1.2c-5.1 2.4-7.5 6.5-7.5 13.1 0 4.6.4 5.6 3.5 8.7 3.2 3.2 3.9 3.5 8.2 3.1 2.7-.3 5.7-.8 6.7-1.3 1.4-.6 1.7-.5 1.2.3s.4 1.2 2.8 1.2c2 0 3.6-.3 3.6-.8 0-.4.7-5.4 1.5-11.2 2.1-15 2-15-1.4-15-1.6 0-3.1.6-3.4 1.5-.5 1.2-1 1.2-3.4 0-3.7-2-7-1.8-11.8.4m11.7 5.8c1.1 1 1.8 3 1.8 5.5 0 7.8-8.5 11.8-12.9 6.2-2.6-3.3-2.6-6-.1-10.2 1.6-2.7 2.6-3.2 5.7-3.2 2 0 4.5.7 5.5 1.7m48.3-6.5c-.2.7-.9 5-1.5 9.6-1.7 12.6 1.3 16.7 11.7 15.9 8.6-.6 10.5-3.6 11.9-19l.7-7.7h-3.1c-3.3 0-3.4.3-4.8 12.5-.9 7.8-1.8 9.5-5.3 9.5-5.5 0-5.7-1.4-3.5-17.8.6-4.2.6-4.2-2.5-4.2-1.7 0-3.4.6-3.6 1.2m32.7.3c-3.9 1.7-5.8 5.8-4.3 9.2.6 1.2 2.8 3.4 5.1 4.8 2.2 1.4 4 3.2 4 4 0 2.4-3 3-6 1.3-2.3-1.3-2.9-1.3-4.6-.1-1.8 1.4-1.8 1.5.9 3.9 6.1 5.2 16.7 1.8 16.7-5.4 0-2.9-2-5.3-7.2-8.5-1.6-1-2.8-2.5-2.8-3.4 0-1.3.8-1.5 4.3-1 4.2.6 6.7-.4 6.7-2.6 0-.9-6.2-3.7-8.2-3.7-.7.1-2.8.7-4.6 1.5m40.3-.1c-5.1 2.2-8.5 7.1-8.5 12.2 0 8.6 4.7 13.4 13.2 13.4 5.2 0 6.3-.7 7.2-4.4.6-2.5.5-2.8-1.1-2.1-7.2 3.1-12.8.4-12.8-6.3 0-5.4 2.6-8.2 7.7-8.2 2.4 0 4.5.7 5.7 1.9 1.9 1.9 1.9 1.9 2.5-.2 1-3.8.7-4.5-3.4-6.1-4.8-1.9-6.5-1.9-10.5-.2m32.5-.7c0 .5-.7 5.5-1.5 11.3-2.1 15.4-2.1 15.2 1.7 14.8l3.3-.3 1.2-10c1.9-15.9 1.8-16.5-1.7-16.5-1.6 0-3 .3-3 .7m19.6.3c-7.9 2.4-11.7 11.7-8 19.5 2.9 6.2 13.5 8.6 20.2 4.5 3.8-2.3 4-3.3.9-4.7-1.7-.8-2.8-.7-4.2.3-2.7 2-7.9 1.7-9.8-.4-3.3-3.6-2.2-4.2 8.4-4.2h10.2l-.6-4.5c-.5-5.2-2.7-8.2-7.4-10.1-3.6-1.6-5.5-1.6-9.7-.4m9.8 7.2c1.5 2.5.5 2.9-6.3 2.6l-6.1-.3 1.6-2.3c1.3-1.9 2.3-2.2 5.6-2 2.5.2 4.5 1 5.2 2m14.2-5c-.9 5.7-2.6 20.1-2.6 22 0 1.3.8 1.8 2.9 1.8 3.4 0 3.7-.6 4.6-10 .9-8.5 2.5-11 7-11h3.5l-.1 5.2c0 2.9-.4 7.7-.8 10.5l-.7 5.3h3.2c2.7 0 3.2-.4 3.7-3 1.3-6.1 1.9-15.9 1.3-18.5-.9-3.7-6.4-5.9-11.4-4.5-2.4.6-3.8.6-4 0s-1.7-1-3.2-1c-2.5 0-3 .5-3.4 3.2m53-2.2c-7.9 2.4-11.7 11.7-8 19.5 2.9 6.2 13.5 8.6 20.2 4.5 3.8-2.3 4-3.3.9-4.7-1.7-.8-2.8-.7-4.2.3-2.7 2-7.9 1.7-9.8-.4-3.3-3.6-2.2-4.2 8.4-4.2h10.2l-.6-4.5c-.5-5.2-2.7-8.2-7.4-10.1-3.6-1.6-5.5-1.6-9.7-.4m9.8 7.2c1.5 2.5.5 2.9-6.3 2.6l-6.1-.3 1.6-2.3c1.3-1.9 2.3-2.2 5.6-2 2.5.2 4.5 1 5.2 2m18.9-7.5c-2.9.6-6.3 4.9-6.3 7.9 0 2.8 2.5 5.6 7 7.9 2 1 3 2.2 2.8 3.3-.4 2.3-4.5 2.7-6.7.8-1.7-1.5-2-1.5-4.2.3l-2.3 1.9 3.4 2.1c6.5 3.9 15.2 1.9 16.5-3.8.8-4-.7-6.5-5.5-9.2-2.5-1.4-4-3-4-4.2 0-1.8.5-1.9 4.4-1.4 3.2.5 4.7.2 5.6-.8 2.1-2.5-5.4-5.9-10.7-4.8"/></svg>